<svg width="175" height="47" viewBox="0 0 175 47" fill="none" xmlns="http://www.w3.org/2000/svg">
<g clip-path="url(#clip0_55_14)">
<path d="M99.964 36C99.7 36 99.484 35.916 99.316 35.748C99.148 35.58 99.064 35.364 99.064 35.1V16.452H92.656C92.392 16.452 92.176 16.368 92.008 16.2C91.84 16.008 91.756 15.792 91.756 15.552V11.7C91.756 11.436 91.84 11.22 92.008 11.052C92.176 10.884 92.392 10.8 92.656 10.8H112.024C112.288 10.8 112.504 10.884 112.672 11.052C112.84 11.22 112.924 11.436 112.924 11.7V15.552C112.924 15.792 112.84 16.008 112.672 16.2C112.504 16.368 112.288 16.452 112.024 16.452H105.616V35.1C105.616 35.364 105.532 35.58 105.364 35.748C105.196 35.916 104.98 36 104.716 36H99.964ZM117.096 36C116.832 36 116.616 35.916 116.448 35.748C116.28 35.58 116.196 35.364 116.196 35.1V11.7C116.196 11.436 116.28 11.22 116.448 11.052C116.616 10.884 116.832 10.8 117.096 10.8H133.908C134.172 10.8 134.388 10.884 134.556 11.052C134.724 11.22 134.808 11.436 134.808 11.7V15.084C134.808 15.348 134.724 15.564 134.556 15.732C134.388 15.9 134.172 15.984 133.908 15.984H122.424V20.844H133.116C133.38 20.844 133.596 20.94 133.764 21.132C133.932 21.3 134.016 21.516 134.016 21.78V24.912C134.016 25.152 133.932 25.368 133.764 25.56C133.596 25.728 133.38 25.812 133.116 25.812H122.424V30.816H134.196C134.46 30.816 134.676 30.9 134.844 31.068C135.012 31.236 135.096 31.452 135.096 31.716V35.1C135.096 35.364 135.012 35.58 134.844 35.748C134.676 35.916 134.46 36 134.196 36H117.096ZM140.088 36C139.824 36 139.608 35.916 139.44 35.748C139.272 35.58 139.188 35.364 139.188 35.1V11.7C139.188 11.436 139.272 11.22 139.44 11.052C139.608 10.884 139.824 10.8 140.088 10.8H149.88C152.976 10.8 155.412 11.52 157.188 12.96C158.988 14.376 159.888 16.392 159.888 19.008C159.888 20.712 159.468 22.152 158.628 23.328C157.812 24.504 156.732 25.392 155.388 25.992L160.356 34.848C160.428 34.992 160.464 35.124 160.464 35.244C160.464 35.436 160.38 35.616 160.212 35.784C160.068 35.928 159.888 36 159.672 36H154.92C154.464 36 154.128 35.892 153.912 35.676C153.696 35.436 153.54 35.22 153.444 35.028L149.34 27.108H145.632V35.1C145.632 35.364 145.548 35.58 145.38 35.748C145.212 35.916 144.996 36 144.732 36H140.088ZM145.632 22.032H149.808C150.936 22.032 151.776 21.756 152.328 21.204C152.904 20.652 153.192 19.896 153.192 18.936C153.192 18 152.916 17.244 152.364 16.668C151.836 16.092 150.984 15.804 149.808 15.804H145.632V22.032Z" fill="white"/>
<path d="M47.42 36C47.156 36 46.94 35.916 46.772 35.748C46.604 35.58 46.52 35.364 46.52 35.1V11.7C46.52 11.436 46.604 11.22 46.772 11.052C46.94 10.884 47.156 10.8 47.42 10.8H64.232C64.496 10.8 64.712 10.884 64.88 11.052C65.048 11.22 65.132 11.436 65.132 11.7V15.084C65.132 15.348 65.048 15.564 64.88 15.732C64.712 15.9 64.496 15.984 64.232 15.984H52.748V20.844H63.44C63.704 20.844 63.92 20.94 64.088 21.132C64.256 21.3 64.34 21.516 64.34 21.78V24.912C64.34 25.152 64.256 25.368 64.088 25.56C63.92 25.728 63.704 25.812 63.44 25.812H52.748V30.816H64.52C64.784 30.816 65 30.9 65.168 31.068C65.336 31.236 65.42 31.452 65.42 31.716V35.1C65.42 35.364 65.336 35.58 65.168 35.748C65 35.916 64.784 36 64.52 36H47.42ZM78.9082 36.36C76.5082 36.36 74.5162 36.024 72.9322 35.352C71.3482 34.656 70.1482 33.756 69.3322 32.652C68.5162 31.548 68.0842 30.372 68.0362 29.124C68.0362 28.932 68.1082 28.764 68.2522 28.62C68.4202 28.452 68.6122 28.368 68.8282 28.368H73.3642C73.7002 28.368 73.9522 28.428 74.1202 28.548C74.3122 28.668 74.4802 28.824 74.6242 29.016C74.8162 29.376 75.0802 29.724 75.4162 30.06C75.7762 30.396 76.2322 30.672 76.7842 30.888C77.3602 31.08 78.0682 31.176 78.9082 31.176C80.3002 31.176 81.3442 30.96 82.0402 30.528C82.7602 30.096 83.1202 29.508 83.1202 28.764C83.1202 28.236 82.9282 27.804 82.5442 27.468C82.1602 27.108 81.5362 26.796 80.6722 26.532C79.8322 26.244 78.7042 25.956 77.2882 25.668C75.4642 25.284 73.9042 24.792 72.6082 24.192C71.3362 23.568 70.3642 22.764 69.6922 21.78C69.0202 20.772 68.6842 19.524 68.6842 18.036C68.6842 16.572 69.0922 15.264 69.9082 14.112C70.7482 12.96 71.9122 12.06 73.4002 11.412C74.8882 10.764 76.6522 10.44 78.6922 10.44C80.3482 10.44 81.8002 10.656 83.0482 11.088C84.3202 11.52 85.3882 12.096 86.2522 12.816C87.1162 13.536 87.7642 14.304 88.1962 15.12C88.6522 15.912 88.8922 16.692 88.9162 17.46C88.9162 17.652 88.8442 17.832 88.7002 18C88.5562 18.144 88.3762 18.216 88.1602 18.216H83.4082C83.1442 18.216 82.9162 18.168 82.7242 18.072C82.5322 17.976 82.3642 17.82 82.2202 17.604C82.0762 17.076 81.6922 16.62 81.0682 16.236C80.4682 15.828 79.6762 15.624 78.6922 15.624C77.6362 15.624 76.8082 15.816 76.2082 16.2C75.6322 16.56 75.3442 17.124 75.3442 17.892C75.3442 18.372 75.5002 18.792 75.8122 19.152C76.1482 19.512 76.6882 19.824 77.4322 20.088C78.2002 20.352 79.2442 20.628 80.5642 20.916C82.7482 21.324 84.5122 21.84 85.8562 22.464C87.2002 23.064 88.1842 23.856 88.8082 24.84C89.4322 25.8 89.7442 27.012 89.7442 28.476C89.7442 30.108 89.2762 31.524 88.3402 32.724C87.4282 33.9 86.1562 34.8 84.5242 35.424C82.8922 36.048 81.0202 36.36 78.9082 36.36Z" fill="url(#paint0_linear_55_14)"/>
<path d="M41.7953 23.6005C41.7953 33.7368 33.1982 38.8798 22.5933 38.8798C11.9884 38.8798 12.6552 33.7368 12.6552 23.6005C12.6552 13.4641 11.9884 8 22.5933 8C33.1982 8 41.7953 13.4641 41.7953 23.6005Z" fill="url(#paint1_linear_55_14)"/>
<path d="M18.9296 30.8891C20.3853 30.8891 21.5655 30.855 21.5655 32.2164C21.5655 33.5777 20.3853 34.6813 18.9296 34.6813C17.4738 34.6813 16.2937 33.5777 16.2937 32.2164C16.2937 30.855 17.4738 30.8891 18.9296 30.8891Z" fill="url(#paint2_linear_55_14)"/>
<g filter="url(#filter0_d_55_14)">
<rect x="9" y="17.2098" width="19.8868" height="10.4287" rx="5.21434" fill="url(#paint3_linear_55_14)" shape-rendering="crispEdges"/>
</g>
<rect x="9" y="17.2098" width="19.8868" height="10.4287" rx="5.21434" fill="url(#paint4_linear_55_14)"/>
<path d="M14.6728 22.4919C14.6728 24.2123 14.7092 25.607 13.2546 25.607C11.8 25.607 10.6208 24.2123 10.6208 22.4919C10.6208 20.7715 11.8 19.3768 13.2546 19.3768C14.7092 19.3768 14.6728 20.7715 14.6728 22.4919Z" fill="white"/>
</g>
<defs>
<filter id="filter0_d_55_14" x="-11" y="2.20984" width="59.8868" height="50.4287" filterUnits="userSpaceOnUse" color-interpolation-filters="sRGB">
<feFlood flood-opacity="0" result="BackgroundImageFix"/>
<feColorMatrix in="SourceAlpha" type="matrix" values="0 0 0 0 0 0 0 0 0 0 0 0 0 0 0 0 0 0 127 0" result="hardAlpha"/>
<feOffset dy="5"/>
<feGaussianBlur stdDeviation="10"/>
<feComposite in2="hardAlpha" operator="out"/>
<feColorMatrix type="matrix" values="0 0 0 0 0 0 0 0 0 0 0 0 0 0 0 0 0 0 0.04 0"/>
<feBlend mode="normal" in2="BackgroundImageFix" result="effect1_dropShadow_55_14"/>
<feBlend mode="normal" in="SourceGraphic" in2="effect1_dropShadow_55_14" result="shape"/>
</filter>
<linearGradient id="paint0_linear_55_14" x1="46.0053" y1="6.13343" x2="105.463" y2="41.7973" gradientUnits="userSpaceOnUse">
<stop stop-color="#00FFB3"/>
<stop offset="1" stop-color="#00FFE0"/>
</linearGradient>
<linearGradient id="paint1_linear_55_14" x1="36.9675" y1="0.483217" x2="13.323" y2="28.3874" gradientUnits="userSpaceOnUse">
<stop stop-color="#00FFE0" stop-opacity="0.66"/>
<stop offset="1" stop-color="#00FFB3"/>
</linearGradient>
<linearGradient id="paint2_linear_55_14" x1="16.2779" y1="31.4953" x2="23.0882" y2="34.8431" gradientUnits="userSpaceOnUse">
<stop stop-color="white"/>
<stop offset="1" stop-color="#8BFFDC"/>
</linearGradient>
<linearGradient id="paint3_linear_55_14" x1="9.68839" y1="17.2098" x2="29.2436" y2="25.0359" gradientUnits="userSpaceOnUse">
<stop stop-color="white" stop-opacity="0.29"/>
<stop offset="1" stop-color="white" stop-opacity="0.4"/>
</linearGradient>
<linearGradient id="paint4_linear_55_14" x1="9.68839" y1="17.2098" x2="29.2436" y2="25.0359" gradientUnits="userSpaceOnUse">
<stop stop-color="white"/>
<stop offset="1" stop-color="white" stop-opacity="0"/>
</linearGradient>
<clipPath id="clip0_55_14">
<rect width="175" height="47" fill="white"/>
</clipPath>
</defs>
</svg>
