<svg width="264" height="360" viewBox="0 0 264 360" fill="none" xmlns="http://www.w3.org/2000/svg">
<path d="M66.056 288V86.4H151.016C165.8 86.4 179.336 88.896 191.624 93.888C203.912 98.688 214.472 105.6 223.304 114.624C232.136 123.456 238.952 134.112 243.752 146.592C248.552 158.88 250.952 172.416 250.952 187.2C250.952 202.176 248.552 215.808 243.752 228.096C238.952 240.384 232.136 251.04 223.304 260.064C214.472 268.896 203.912 275.808 191.624 280.8C179.528 285.6 165.992 288 151.016 288H66.056ZM115.304 254.016L108.968 244.512H149.576C157.448 244.512 164.552 243.168 170.888 240.48C177.224 237.792 182.6 233.952 187.016 228.96C191.624 223.776 195.08 217.728 197.384 210.816C199.88 203.712 201.128 195.84 201.128 187.2C201.128 178.56 199.88 170.784 197.384 163.872C195.08 156.768 191.624 150.72 187.016 145.728C182.6 140.544 177.224 136.608 170.888 133.92C164.552 131.232 157.448 129.888 149.576 129.888H108.104L115.304 120.96V254.016Z" fill="white"/>
<rect y="161" width="169" height="49" rx="24.5" fill="#14DCA0"/>
</svg>
