<svg width="260" height="228" viewBox="0 0 260 228" fill="none" xmlns="http://www.w3.org/2000/svg">
<path d="M260 115.186C260 190.027 196.351 228 117.835 228C39.3196 228 47.5 184.342 47.5 109.5C47.5 34.6584 39.3196 0 117.835 0C196.351 0 260 40.3442 260 115.186Z" fill="#14DCA0"/>
<g filter="url(#filter0_d_15_3)">
<rect x="20" y="69" width="130" height="64" rx="32" fill="white"/>
</g>
<g filter="url(#filter1_d_15_3)">
<path d="M115 183.5C115 190.956 104.926 197 92.5 197C80.0736 197 73.5 190.956 73.5 183.5C73.5 176.044 80.0736 170 92.5 170C104.926 170 115 176.044 115 183.5Z" fill="white"/>
</g>
<defs>
<filter id="filter0_d_15_3" x="0" y="54" width="170" height="104" filterUnits="userSpaceOnUse" color-interpolation-filters="sRGB">
<feFlood flood-opacity="0" result="BackgroundImageFix"/>
<feColorMatrix in="SourceAlpha" type="matrix" values="0 0 0 0 0 0 0 0 0 0 0 0 0 0 0 0 0 0 127 0" result="hardAlpha"/>
<feOffset dy="5"/>
<feGaussianBlur stdDeviation="10"/>
<feComposite in2="hardAlpha" operator="out"/>
<feColorMatrix type="matrix" values="0 0 0 0 0 0 0 0 0 0 0 0 0 0 0 0 0 0 0.15 0"/>
<feBlend mode="normal" in2="BackgroundImageFix" result="effect1_dropShadow_15_3"/>
<feBlend mode="normal" in="SourceGraphic" in2="effect1_dropShadow_15_3" result="shape"/>
</filter>
<filter id="filter1_d_15_3" x="53.5" y="150" width="81.5" height="67" filterUnits="userSpaceOnUse" color-interpolation-filters="sRGB">
<feFlood flood-opacity="0" result="BackgroundImageFix"/>
<feColorMatrix in="SourceAlpha" type="matrix" values="0 0 0 0 0 0 0 0 0 0 0 0 0 0 0 0 0 0 127 0" result="hardAlpha"/>
<feOffset/>
<feGaussianBlur stdDeviation="10"/>
<feComposite in2="hardAlpha" operator="out"/>
<feColorMatrix type="matrix" values="0 0 0 0 0 0 0 0 0 0 0 0 0 0 0 0 0 0 0.15 0"/>
<feBlend mode="normal" in2="BackgroundImageFix" result="effect1_dropShadow_15_3"/>
<feBlend mode="normal" in="SourceGraphic" in2="effect1_dropShadow_15_3" result="shape"/>
</filter>
</defs>
</svg>
