<svg width="1214" height="360" viewBox="0 0 1214 360" fill="none" xmlns="http://www.w3.org/2000/svg">
<g filter="url(#filter0_d_7_3)">
<path d="M70.056 288V86.4H155.016C169.8 86.4 183.336 88.896 195.624 93.888C207.912 98.688 218.472 105.6 227.304 114.624C236.136 123.456 242.952 134.112 247.752 146.592C252.552 158.88 254.952 172.416 254.952 187.2C254.952 202.176 252.552 215.808 247.752 228.096C242.952 240.384 236.136 251.04 227.304 260.064C218.472 268.896 207.912 275.808 195.624 280.8C183.528 285.6 169.992 288 155.016 288H70.056ZM119.304 254.016L112.968 244.512H153.576C161.448 244.512 168.552 243.168 174.888 240.48C181.224 237.792 186.6 233.952 191.016 228.96C195.624 223.776 199.08 217.728 201.384 210.816C203.88 203.712 205.128 195.84 205.128 187.2C205.128 178.56 203.88 170.784 201.384 163.872C199.08 156.768 195.624 150.72 191.016 145.728C186.6 140.544 181.224 136.608 174.888 133.92C168.552 131.232 161.448 129.888 153.576 129.888H112.104L119.304 120.96V254.016ZM292.525 288V86.4H433.069V128.448H340.621V245.952H436.237V288H292.525ZM315.853 205.632V165.312H420.397V205.632H315.853ZM545.254 290.88C525.286 290.88 508.39 287.424 494.566 280.512C480.934 273.408 469.222 263.424 459.43 250.56L489.382 216.864C498.79 229.728 508.294 238.368 517.894 242.784C527.494 247.2 537.382 249.408 547.558 249.408C552.742 249.408 557.35 248.736 561.382 247.392C565.606 246.048 568.87 244.128 571.174 241.632C573.67 238.944 574.918 235.776 574.918 232.128C574.918 229.248 574.15 226.656 572.614 224.352C571.27 222.048 569.35 220.032 566.854 218.304C564.358 216.576 561.478 215.04 558.214 213.696C554.95 212.16 551.302 210.912 547.27 209.952C543.43 208.992 539.494 208.128 535.462 207.36C524.326 205.056 514.63 202.08 506.374 198.432C498.31 194.592 491.494 190.08 485.926 184.896C480.55 179.52 476.518 173.472 473.83 166.752C471.142 159.84 469.798 152.064 469.798 143.424C469.798 131.136 473.254 120.384 480.166 111.168C487.27 101.952 496.582 94.752 508.102 89.568C519.622 84.384 532.102 81.792 545.542 81.792C565.126 81.792 580.87 84.96 592.774 91.296C604.87 97.44 614.47 105.984 621.574 116.928L591.046 146.592C585.094 138.912 578.278 133.152 570.598 129.312C563.11 125.472 555.238 123.552 546.982 123.552C541.414 123.552 536.518 124.224 532.294 125.568C528.07 126.912 524.806 128.928 522.502 131.616C520.39 134.112 519.334 137.184 519.334 140.832C519.334 143.904 520.198 146.688 521.926 149.184C523.846 151.488 526.438 153.504 529.702 155.232C532.966 156.96 536.71 158.496 540.934 159.84C545.158 160.992 549.574 161.952 554.182 162.72C564.742 164.832 574.246 167.616 582.694 171.072C591.334 174.528 598.726 178.848 604.87 184.032C611.014 189.024 615.718 194.976 618.982 201.888C622.438 208.608 624.166 216.384 624.166 225.216C624.166 239.04 620.806 250.848 614.086 260.64C607.366 270.432 598.054 277.92 586.15 283.104C574.246 288.288 560.614 290.88 545.254 290.88Z" fill="white"/>
<path d="M704.832 288V129.888H645.504V86.4H815.424V129.888H754.08V288H704.832ZM849.775 288V86.4H990.319V128.448H897.871V245.952H993.487V288H849.775ZM873.103 205.632V165.312H977.647V205.632H873.103ZM1035.4 288V86.4H1126.7C1139.75 86.4 1151.46 89.184 1161.83 94.752C1172.2 100.32 1180.36 108 1186.31 117.792C1192.46 127.392 1195.53 138.432 1195.53 150.912C1195.53 163.584 1192.46 174.912 1186.31 184.896C1180.36 194.88 1172.2 202.848 1161.83 208.8C1151.46 214.56 1139.75 217.44 1126.7 217.44H1082.34V288H1035.4ZM1147.43 288L1096.17 196.704L1146.57 189.504L1203.59 288.288L1147.43 288ZM1082.34 179.136H1122.38C1127.37 179.136 1131.69 178.08 1135.34 175.968C1139.18 173.664 1142.06 170.592 1143.98 166.752C1146.09 162.912 1147.14 158.496 1147.14 153.504C1147.14 148.32 1145.9 143.808 1143.4 139.968C1141.1 136.128 1137.74 133.152 1133.32 131.04C1129.1 128.736 1124.01 127.584 1118.06 127.584H1082.34V179.136Z" fill="#14DCA0"/>
<rect x="4" y="161" width="169" height="49" rx="24.5" fill="#14DCA0"/>
</g>
<defs>
<filter id="filter0_d_7_3" x="0" y="81.792" width="1207.59" height="217.088" filterUnits="userSpaceOnUse" color-interpolation-filters="sRGB">
<feFlood flood-opacity="0" result="BackgroundImageFix"/>
<feColorMatrix in="SourceAlpha" type="matrix" values="0 0 0 0 0 0 0 0 0 0 0 0 0 0 0 0 0 0 127 0" result="hardAlpha"/>
<feOffset dy="4"/>
<feGaussianBlur stdDeviation="2"/>
<feComposite in2="hardAlpha" operator="out"/>
<feColorMatrix type="matrix" values="0 0 0 0 0 0 0 0 0 0 0 0 0 0 0 0 0 0 0.25 0"/>
<feBlend mode="normal" in2="BackgroundImageFix" result="effect1_dropShadow_7_3"/>
<feBlend mode="normal" in="SourceGraphic" in2="effect1_dropShadow_7_3" result="shape"/>
</filter>
</defs>
</svg>
