<svg width="240" height="360" viewBox="0 0 240 360" fill="none" xmlns="http://www.w3.org/2000/svg">
<rect width="240" height="360" fill="#133F42"/>
<path d="M55.856 190C55.6693 190 55.5107 189.935 55.38 189.804C55.2493 189.673 55.184 189.515 55.184 189.328V171.1C55.184 170.895 55.2493 170.727 55.38 170.596C55.5107 170.465 55.6693 170.4 55.856 170.4H58.012C58.2733 170.4 58.46 170.465 58.572 170.596C58.7027 170.708 58.7867 170.792 58.824 170.848L66.888 183.392V171.1C66.888 170.895 66.944 170.727 67.056 170.596C67.1867 170.465 67.3547 170.4 67.56 170.4H69.912C70.1173 170.4 70.2853 170.465 70.416 170.596C70.5467 170.727 70.612 170.895 70.612 171.1V189.3C70.612 189.505 70.5467 189.673 70.416 189.804C70.2853 189.935 70.1267 190 69.94 190H67.756C67.4947 190 67.308 189.935 67.196 189.804C67.084 189.673 67 189.589 66.944 189.552L58.908 177.288V189.328C58.908 189.515 58.8427 189.673 58.712 189.804C58.5813 189.935 58.4133 190 58.208 190H55.856ZM82.5129 190.28C80.8515 190.28 79.4235 190.009 78.2289 189.468C77.0342 188.908 76.1009 188.059 75.4289 186.92C74.7569 185.763 74.3929 184.325 74.3369 182.608C74.3182 181.805 74.3089 181.012 74.3089 180.228C74.3089 179.444 74.3182 178.641 74.3369 177.82C74.3929 176.121 74.7662 174.703 75.4569 173.564C76.1475 172.425 77.0902 171.567 78.2849 170.988C79.4982 170.409 80.9075 170.12 82.5129 170.12C84.1182 170.12 85.5275 170.409 86.7409 170.988C87.9542 171.567 88.9062 172.425 89.5969 173.564C90.2875 174.703 90.6609 176.121 90.7169 177.82C90.7542 178.641 90.7729 179.444 90.7729 180.228C90.7729 181.012 90.7542 181.805 90.7169 182.608C90.6609 184.325 90.2969 185.763 89.6249 186.92C88.9529 188.059 88.0102 188.908 86.7969 189.468C85.6022 190.009 84.1742 190.28 82.5129 190.28ZM82.5129 187.06C83.7262 187.06 84.7155 186.705 85.4809 185.996C86.2462 185.268 86.6569 184.092 86.7129 182.468C86.7502 181.647 86.7689 180.891 86.7689 180.2C86.7689 179.491 86.7502 178.735 86.7129 177.932C86.6755 176.849 86.4702 175.972 86.0969 175.3C85.7422 174.609 85.2569 174.115 84.6409 173.816C84.0249 173.499 83.3155 173.34 82.5129 173.34C81.7289 173.34 81.0289 173.499 80.4129 173.816C79.7969 174.115 79.3022 174.609 78.9289 175.3C78.5742 175.972 78.3782 176.849 78.3409 177.932C78.3222 178.735 78.3129 179.491 78.3129 180.2C78.3129 180.891 78.3222 181.647 78.3409 182.468C78.3969 184.092 78.8075 185.268 79.5729 185.996C80.3382 186.705 81.3182 187.06 82.5129 187.06ZM101.52 190C101.333 190 101.175 189.935 101.044 189.804C100.913 189.673 100.848 189.515 100.848 189.328V171.072C100.848 170.885 100.913 170.727 101.044 170.596C101.175 170.465 101.333 170.4 101.52 170.4H104.152C104.357 170.4 104.516 170.465 104.628 170.596C104.759 170.727 104.824 170.885 104.824 171.072V189.328C104.824 189.515 104.759 189.673 104.628 189.804C104.516 189.935 104.357 190 104.152 190H101.52ZM109.915 190C109.71 190 109.542 189.935 109.411 189.804C109.281 189.673 109.215 189.515 109.215 189.328V171.1C109.215 170.895 109.281 170.727 109.411 170.596C109.542 170.465 109.71 170.4 109.915 170.4H112.127C112.389 170.4 112.585 170.475 112.715 170.624C112.846 170.755 112.93 170.857 112.967 170.932L118.371 181.012L123.831 170.932C123.869 170.857 123.953 170.755 124.083 170.624C124.214 170.475 124.41 170.4 124.671 170.4H126.855C127.061 170.4 127.229 170.465 127.359 170.596C127.49 170.727 127.555 170.895 127.555 171.1V189.328C127.555 189.515 127.49 189.673 127.359 189.804C127.229 189.935 127.061 190 126.855 190H124.503C124.298 190 124.13 189.935 123.999 189.804C123.887 189.673 123.831 189.515 123.831 189.328V177.204L119.911 184.68C119.818 184.848 119.697 184.997 119.547 185.128C119.398 185.24 119.202 185.296 118.959 185.296H117.811C117.55 185.296 117.345 185.24 117.195 185.128C117.065 184.997 116.953 184.848 116.859 184.68L112.939 177.204V189.328C112.939 189.515 112.874 189.673 112.743 189.804C112.613 189.935 112.454 190 112.267 190H109.915ZM130.707 190C130.557 190 130.417 189.944 130.287 189.832C130.175 189.72 130.119 189.58 130.119 189.412C130.119 189.337 130.137 189.253 130.175 189.16L136.923 171.1C136.979 170.913 137.081 170.755 137.231 170.624C137.399 170.475 137.623 170.4 137.903 170.4H140.955C141.235 170.4 141.449 170.475 141.599 170.624C141.748 170.755 141.86 170.913 141.935 171.1L148.683 189.16C148.701 189.253 148.711 189.337 148.711 189.412C148.711 189.58 148.655 189.72 148.543 189.832C148.431 189.944 148.3 190 148.151 190H145.715C145.453 190 145.257 189.944 145.127 189.832C145.015 189.701 144.94 189.58 144.903 189.468L143.587 186.052H135.271L133.955 189.468C133.917 189.58 133.833 189.701 133.703 189.832C133.591 189.944 133.404 190 133.143 190H130.707ZM136.251 182.832H142.607L139.415 174.18L136.251 182.832ZM158.558 190.28C156.84 190.28 155.375 189.981 154.162 189.384C152.967 188.787 152.034 187.928 151.362 186.808C150.708 185.669 150.354 184.316 150.298 182.748C150.279 181.945 150.27 181.087 150.27 180.172C150.27 179.239 150.279 178.361 150.298 177.54C150.354 175.991 150.708 174.665 151.362 173.564C152.034 172.463 152.976 171.613 154.19 171.016C155.422 170.419 156.878 170.12 158.558 170.12C159.92 170.12 161.115 170.307 162.142 170.68C163.168 171.035 164.018 171.501 164.69 172.08C165.38 172.64 165.894 173.247 166.23 173.9C166.584 174.553 166.771 175.16 166.79 175.72C166.808 175.888 166.762 176.028 166.65 176.14C166.538 176.252 166.388 176.308 166.202 176.308H163.318C163.131 176.308 162.991 176.271 162.898 176.196C162.804 176.121 162.72 176.009 162.646 175.86C162.496 175.468 162.263 175.085 161.946 174.712C161.628 174.32 161.199 173.993 160.658 173.732C160.116 173.471 159.416 173.34 158.558 173.34C157.288 173.34 156.271 173.676 155.506 174.348C154.759 175.02 154.358 176.131 154.302 177.68C154.246 179.304 154.246 180.947 154.302 182.608C154.358 184.195 154.768 185.333 155.534 186.024C156.318 186.715 157.344 187.06 158.614 187.06C159.454 187.06 160.2 186.911 160.854 186.612C161.526 186.313 162.048 185.847 162.422 185.212C162.814 184.577 163.01 183.765 163.01 182.776V181.908H159.594C159.407 181.908 159.248 181.843 159.118 181.712C158.987 181.581 158.922 181.413 158.922 181.208V179.724C158.922 179.519 158.987 179.351 159.118 179.22C159.248 179.089 159.407 179.024 159.594 179.024H166.286C166.491 179.024 166.65 179.089 166.762 179.22C166.892 179.351 166.958 179.519 166.958 179.724V182.664C166.958 184.232 166.612 185.585 165.922 186.724C165.25 187.863 164.279 188.74 163.01 189.356C161.759 189.972 160.275 190.28 158.558 190.28ZM171.219 190C171.033 190 170.874 189.935 170.743 189.804C170.613 189.673 170.547 189.515 170.547 189.328V171.1C170.547 170.895 170.613 170.727 170.743 170.596C170.874 170.465 171.033 170.4 171.219 170.4H183.539C183.745 170.4 183.913 170.465 184.043 170.596C184.174 170.727 184.239 170.895 184.239 171.1V172.948C184.239 173.135 184.174 173.293 184.043 173.424C183.913 173.555 183.745 173.62 183.539 173.62H174.327V178.576H182.923C183.129 178.576 183.297 178.641 183.427 178.772C183.558 178.884 183.623 179.043 183.623 179.248V180.984C183.623 181.189 183.558 181.357 183.427 181.488C183.297 181.6 183.129 181.656 182.923 181.656H174.327V186.78H183.763C183.969 186.78 184.137 186.845 184.267 186.976C184.398 187.107 184.463 187.275 184.463 187.48V189.328C184.463 189.515 184.398 189.673 184.267 189.804C184.137 189.935 183.969 190 183.763 190H171.219Z" fill="white"/>
</svg>
