<svg width="1280" height="720" viewBox="0 0 1280 720" fill="none" xmlns="http://www.w3.org/2000/svg">
<rect width="1280" height="720" fill="#C4C4C4"/>
<path d="M208.58 396V328.8H217.892L258.98 383.808L257.444 384.672C256.996 382.048 256.612 379.008 256.292 375.552C256.036 372.096 255.844 368.288 255.716 364.128C255.588 359.968 255.524 355.552 255.524 350.88V328.8H265.892V396H256.388L215.972 343.008L217.028 341.664C217.476 346.528 217.828 350.528 218.084 353.664C218.34 356.736 218.532 359.2 218.66 361.056C218.788 362.912 218.852 364.384 218.852 365.472C218.916 366.496 218.948 367.36 218.948 368.064V396H208.58ZM312.833 396.96C308.097 396.96 303.713 396.096 299.681 394.368C295.713 392.64 292.225 390.24 289.217 387.168C286.273 384.032 283.969 380.384 282.305 376.224C280.705 372 279.905 367.392 279.905 362.4C279.905 357.408 280.705 352.832 282.305 348.672C283.969 344.448 286.273 340.8 289.217 337.728C292.225 334.592 295.713 332.16 299.681 330.432C303.713 328.704 308.097 327.84 312.833 327.84C317.569 327.84 321.921 328.704 325.889 330.432C329.921 332.16 333.409 334.592 336.353 337.728C339.361 340.864 341.665 344.544 343.265 348.768C344.929 352.928 345.761 357.472 345.761 362.4C345.761 367.328 344.929 371.904 343.265 376.128C341.665 380.288 339.361 383.936 336.353 387.072C333.409 390.208 329.921 392.64 325.889 394.368C321.921 396.096 317.569 396.96 312.833 396.96ZM312.833 386.88C316.097 386.88 319.073 386.272 321.761 385.056C324.513 383.84 326.881 382.144 328.865 379.968C330.849 377.728 332.385 375.136 333.473 372.192C334.625 369.184 335.201 365.92 335.201 362.4C335.201 358.88 334.625 355.648 333.473 352.704C332.385 349.696 330.849 347.104 328.865 344.928C326.881 342.688 324.513 340.96 321.761 339.744C319.073 338.528 316.097 337.92 312.833 337.92C309.569 337.92 306.561 338.528 303.809 339.744C301.121 340.96 298.753 342.656 296.705 344.832C294.721 347.008 293.185 349.6 292.097 352.608C291.009 355.552 290.465 358.816 290.465 362.4C290.465 367.136 291.425 371.36 293.345 375.072C295.265 378.72 297.889 381.6 301.217 383.712C304.609 385.824 308.481 386.88 312.833 386.88ZM384.209 396V386.4H395.057V338.4H384.209V328.8H416.273V338.4H405.425V386.4H416.273V396H384.209ZM432.549 396V328.8H442.725L467.205 368.64L462.309 368.544L487.077 328.8H496.677V396H486.309V368.448C486.309 362.688 486.437 357.504 486.693 352.896C487.013 348.288 487.525 343.712 488.229 339.168L489.573 342.72L467.589 376.704H461.253L439.941 343.104L440.997 339.168C441.701 343.456 442.181 347.872 442.437 352.416C442.757 356.896 442.917 362.24 442.917 368.448V396H432.549ZM508.509 396L534.525 328.8H545.085L570.909 396H559.869L544.509 355.488C544.317 355.04 543.933 353.952 543.357 352.224C542.845 350.496 542.237 348.576 541.533 346.464C540.829 344.352 540.189 342.432 539.613 340.704C539.037 338.912 538.653 337.76 538.461 337.248L540.669 337.152C540.285 338.24 539.805 339.616 539.229 341.28C538.717 342.944 538.141 344.704 537.501 346.56C536.925 348.416 536.349 350.176 535.773 351.84C535.197 353.44 534.717 354.784 534.333 355.872L519.069 396H508.509ZM520.029 379.296L523.869 369.312H554.397L558.813 379.296H520.029ZM610.909 396.96C606.045 396.96 601.501 396.096 597.277 394.368C593.053 392.576 589.341 390.112 586.141 386.976C582.941 383.84 580.445 380.192 578.653 376.032C576.925 371.808 576.061 367.264 576.061 362.4C576.061 357.6 576.925 353.12 578.653 348.96C580.445 344.8 582.909 341.184 586.045 338.112C589.245 334.976 592.957 332.544 597.181 330.816C601.405 329.088 605.949 328.224 610.813 328.224C614.205 328.224 617.501 328.704 620.701 329.664C623.965 330.624 626.909 331.968 629.533 333.696C632.157 335.424 634.301 337.408 635.965 339.648L629.245 346.656C626.365 343.904 623.357 341.824 620.221 340.416C617.149 339.008 614.013 338.304 610.813 338.304C607.357 338.304 604.157 338.912 601.213 340.128C598.333 341.344 595.773 343.04 593.533 345.216C591.357 347.392 589.661 349.952 588.445 352.896C587.229 355.776 586.621 358.944 586.621 362.4C586.621 365.728 587.261 368.896 588.541 371.904C589.821 374.848 591.581 377.44 593.821 379.68C596.125 381.92 598.749 383.68 601.693 384.96C604.701 386.24 607.869 386.88 611.197 386.88C613.693 386.88 616.061 386.528 618.301 385.824C620.541 385.056 622.525 384 624.253 382.656C625.981 381.312 627.325 379.776 628.285 378.048C629.245 376.256 629.725 374.368 629.725 372.384V370.464L631.165 371.808H610.621V361.536H640.381C640.509 362.24 640.605 362.944 640.669 363.648C640.733 364.288 640.765 364.928 640.765 365.568C640.829 366.144 640.861 366.72 640.861 367.296C640.861 371.712 640.093 375.744 638.557 379.392C637.021 382.976 634.877 386.08 632.125 388.704C629.437 391.328 626.269 393.376 622.621 394.848C619.037 396.256 615.133 396.96 610.909 396.96ZM654.361 396V328.8H696.697V338.784H664.729V386.016H696.697V396H654.361ZM659.065 366.528V356.544H691.417V366.528H659.065ZM740.236 396V328.8H750.604V396H740.236ZM744.844 367.392V357.408H779.5V367.392H744.844ZM744.844 338.784V328.8H783.82V338.784H744.844ZM825.27 396.96C820.534 396.96 816.15 396.096 812.118 394.368C808.15 392.64 804.662 390.24 801.654 387.168C798.71 384.032 796.406 380.384 794.742 376.224C793.142 372 792.342 367.392 792.342 362.4C792.342 357.408 793.142 352.832 794.742 348.672C796.406 344.448 798.71 340.8 801.654 337.728C804.662 334.592 808.15 332.16 812.118 330.432C816.15 328.704 820.534 327.84 825.27 327.84C830.006 327.84 834.358 328.704 838.326 330.432C842.358 332.16 845.846 334.592 848.79 337.728C851.798 340.864 854.102 344.544 855.702 348.768C857.366 352.928 858.198 357.472 858.198 362.4C858.198 367.328 857.366 371.904 855.702 376.128C854.102 380.288 851.798 383.936 848.79 387.072C845.846 390.208 842.358 392.64 838.326 394.368C834.358 396.096 830.006 396.96 825.27 396.96ZM825.27 386.88C828.534 386.88 831.51 386.272 834.198 385.056C836.95 383.84 839.318 382.144 841.302 379.968C843.286 377.728 844.822 375.136 845.91 372.192C847.062 369.184 847.638 365.92 847.638 362.4C847.638 358.88 847.062 355.648 845.91 352.704C844.822 349.696 843.286 347.104 841.302 344.928C839.318 342.688 836.95 340.96 834.198 339.744C831.51 338.528 828.534 337.92 825.27 337.92C822.006 337.92 818.998 338.528 816.246 339.744C813.558 340.96 811.19 342.656 809.142 344.832C807.158 347.008 805.622 349.6 804.534 352.608C803.446 355.552 802.902 358.816 802.902 362.4C802.902 367.136 803.862 371.36 805.782 375.072C807.702 378.72 810.326 381.6 813.654 383.712C817.046 385.824 820.918 386.88 825.27 386.88ZM898.348 396.576C893.164 396.576 888.524 395.456 884.428 393.216C880.332 390.912 877.1 387.776 874.732 383.808C872.428 379.776 871.276 375.232 871.276 370.176V328.704H881.644V369.312C881.644 372.576 882.412 375.52 883.948 378.144C885.484 380.704 887.5 382.752 889.996 384.288C892.556 385.824 895.34 386.592 898.348 386.592C901.548 386.592 904.428 385.824 906.988 384.288C909.612 382.752 911.692 380.704 913.228 378.144C914.764 375.52 915.532 372.576 915.532 369.312V328.704H925.42V370.176C925.42 375.232 924.236 379.776 921.868 383.808C919.564 387.776 916.364 390.912 912.268 393.216C908.172 395.456 903.532 396.576 898.348 396.576ZM943.299 396V328.8H952.611L993.699 383.808L992.163 384.672C991.715 382.048 991.331 379.008 991.011 375.552C990.755 372.096 990.563 368.288 990.435 364.128C990.307 359.968 990.243 355.552 990.243 350.88V328.8H1000.61V396H991.107L950.691 343.008L951.747 341.664C952.195 346.528 952.547 350.528 952.803 353.664C953.059 356.736 953.251 359.2 953.379 361.056C953.507 362.912 953.571 364.384 953.571 365.472C953.635 366.496 953.667 367.36 953.667 368.064V396H943.299ZM1019.42 396V328.8H1045.73C1050.53 328.8 1054.85 329.6 1058.69 331.2C1062.59 332.8 1065.92 335.104 1068.67 338.112C1071.42 341.12 1073.54 344.672 1075.01 348.768C1076.48 352.864 1077.22 357.408 1077.22 362.4C1077.22 367.392 1076.48 371.968 1075.01 376.128C1073.54 380.224 1071.42 383.776 1068.67 386.784C1065.98 389.728 1062.69 392 1058.78 393.6C1054.88 395.2 1050.53 396 1045.73 396H1019.42ZM1029.79 387.072L1029.5 386.016H1045.25C1048.64 386.016 1051.65 385.472 1054.27 384.384C1056.96 383.296 1059.2 381.76 1060.99 379.776C1062.85 377.728 1064.26 375.232 1065.22 372.288C1066.18 369.344 1066.66 366.048 1066.66 362.4C1066.66 358.752 1066.18 355.488 1065.22 352.608C1064.26 349.664 1062.85 347.168 1060.99 345.12C1059.14 343.072 1056.9 341.504 1054.27 340.416C1051.65 339.328 1048.64 338.784 1045.25 338.784H1029.22L1029.79 337.92V387.072Z" fill="white"/>
</svg>
