<svg width="250" height="375" viewBox="0 0 250 375" fill="none" xmlns="http://www.w3.org/2000/svg">
<rect width="250" height="375" fill="#C4C4C4"/>
<path d="M44.011 179V156.6H47.115L60.811 174.936L60.299 175.224C60.1497 174.349 60.0217 173.336 59.915 172.184C59.8297 171.032 59.7657 169.763 59.723 168.376C59.6803 166.989 59.659 165.517 59.659 163.96V156.6H63.115V179H59.947L46.475 161.336L46.827 160.888C46.9763 162.509 47.0937 163.843 47.179 164.888C47.2643 165.912 47.3283 166.733 47.371 167.352C47.4137 167.971 47.435 168.461 47.435 168.824C47.4563 169.165 47.467 169.453 47.467 169.688V179H44.011ZM78.762 179.32C77.1833 179.32 75.722 179.032 74.378 178.456C73.0553 177.88 71.8927 177.08 70.89 176.056C69.9087 175.011 69.1407 173.795 68.586 172.408C68.0527 171 67.786 169.464 67.786 167.8C67.786 166.136 68.0527 164.611 68.586 163.224C69.1407 161.816 69.9087 160.6 70.89 159.576C71.8927 158.531 73.0553 157.72 74.378 157.144C75.722 156.568 77.1833 156.28 78.762 156.28C80.3407 156.28 81.7913 156.568 83.114 157.144C84.458 157.72 85.6207 158.531 86.602 159.576C87.6047 160.621 88.3727 161.848 88.906 163.256C89.4607 164.643 89.738 166.157 89.738 167.8C89.738 169.443 89.4607 170.968 88.906 172.376C88.3727 173.763 87.6047 174.979 86.602 176.024C85.6207 177.069 84.458 177.88 83.114 178.456C81.7913 179.032 80.3407 179.32 78.762 179.32ZM78.762 175.96C79.85 175.96 80.842 175.757 81.738 175.352C82.6553 174.947 83.4447 174.381 84.106 173.656C84.7673 172.909 85.2793 172.045 85.642 171.064C86.026 170.061 86.218 168.973 86.218 167.8C86.218 166.627 86.026 165.549 85.642 164.568C85.2793 163.565 84.7673 162.701 84.106 161.976C83.4447 161.229 82.6553 160.653 81.738 160.248C80.842 159.843 79.85 159.64 78.762 159.64C77.674 159.64 76.6713 159.843 75.754 160.248C74.858 160.653 74.0687 161.219 73.386 161.944C72.7247 162.669 72.2127 163.533 71.85 164.536C71.4873 165.517 71.306 166.605 71.306 167.8C71.306 169.379 71.626 170.787 72.266 172.024C72.906 173.24 73.7807 174.2 74.89 174.904C76.0207 175.608 77.3113 175.96 78.762 175.96ZM102.554 179V175.8H106.17V159.8H102.554V156.6H113.242V159.8H109.626V175.8H113.242V179H102.554ZM118.667 179V156.6H122.059L130.219 169.88L128.587 169.848L136.843 156.6H140.043V179H136.587V169.816C136.587 167.896 136.63 166.168 136.715 164.632C136.822 163.096 136.993 161.571 137.227 160.056L137.675 161.24L130.347 172.568H128.235L121.131 161.368L121.483 160.056C121.718 161.485 121.878 162.957 121.963 164.472C122.07 165.965 122.123 167.747 122.123 169.816V179H118.667ZM143.988 179L152.66 156.6H156.18L164.788 179H161.108L155.988 165.496C155.924 165.347 155.796 164.984 155.604 164.408C155.433 163.832 155.23 163.192 154.996 162.488C154.761 161.784 154.548 161.144 154.356 160.568C154.164 159.971 154.036 159.587 153.972 159.416L154.708 159.384C154.58 159.747 154.42 160.205 154.228 160.76C154.057 161.315 153.865 161.901 153.652 162.52C153.46 163.139 153.268 163.725 153.076 164.28C152.884 164.813 152.724 165.261 152.595 165.624L147.508 179H143.988ZM147.828 173.432L149.108 170.104H159.284L160.756 173.432H147.828ZM178.121 179.32C176.499 179.32 174.985 179.032 173.577 178.456C172.169 177.859 170.931 177.037 169.865 175.992C168.798 174.947 167.966 173.731 167.369 172.344C166.793 170.936 166.505 169.421 166.505 167.8C166.505 166.2 166.793 164.707 167.369 163.32C167.966 161.933 168.787 160.728 169.833 159.704C170.899 158.659 172.137 157.848 173.545 157.272C174.953 156.696 176.467 156.408 178.089 156.408C179.219 156.408 180.318 156.568 181.385 156.888C182.473 157.208 183.454 157.656 184.329 158.232C185.203 158.808 185.918 159.469 186.473 160.216L184.233 162.552C183.273 161.635 182.27 160.941 181.225 160.472C180.201 160.003 179.155 159.768 178.089 159.768C176.937 159.768 175.87 159.971 174.889 160.376C173.929 160.781 173.075 161.347 172.329 162.072C171.603 162.797 171.038 163.651 170.633 164.632C170.227 165.592 170.025 166.648 170.025 167.8C170.025 168.909 170.238 169.965 170.665 170.968C171.091 171.949 171.678 172.813 172.425 173.56C173.193 174.307 174.067 174.893 175.049 175.32C176.051 175.747 177.107 175.96 178.217 175.96C179.049 175.96 179.838 175.843 180.585 175.608C181.331 175.352 181.993 175 182.569 174.552C183.145 174.104 183.593 173.592 183.913 173.016C184.233 172.419 184.393 171.789 184.393 171.128V170.488L184.873 170.936H178.025V167.512H187.945C187.987 167.747 188.019 167.981 188.041 168.216C188.062 168.429 188.073 168.643 188.073 168.856C188.094 169.048 188.105 169.24 188.105 169.432C188.105 170.904 187.849 172.248 187.337 173.464C186.825 174.659 186.11 175.693 185.193 176.568C184.297 177.443 183.241 178.125 182.025 178.616C180.83 179.085 179.529 179.32 178.121 179.32ZM192.605 179V156.6H206.717V159.928H196.061V175.672H206.717V179H192.605ZM194.173 169.176V165.848H204.957V169.176H194.173ZM69.636 219V196.6H73.092V219H69.636ZM71.172 209.464V206.136H82.724V209.464H71.172ZM71.172 199.928V196.6H84.164V199.928H71.172ZM97.9808 219.32C96.4021 219.32 94.9408 219.032 93.5968 218.456C92.2741 217.88 91.1114 217.08 90.1088 216.056C89.1274 215.011 88.3594 213.795 87.8048 212.408C87.2714 211 87.0048 209.464 87.0048 207.8C87.0048 206.136 87.2714 204.611 87.8048 203.224C88.3594 201.816 89.1274 200.6 90.1088 199.576C91.1114 198.531 92.2741 197.72 93.5968 197.144C94.9408 196.568 96.4021 196.28 97.9808 196.28C99.5594 196.28 101.01 196.568 102.333 197.144C103.677 197.72 104.839 198.531 105.821 199.576C106.823 200.621 107.591 201.848 108.125 203.256C108.679 204.643 108.957 206.157 108.957 207.8C108.957 209.443 108.679 210.968 108.125 212.376C107.591 213.763 106.823 214.979 105.821 216.024C104.839 217.069 103.677 217.88 102.333 218.456C101.01 219.032 99.5594 219.32 97.9808 219.32ZM97.9808 215.96C99.0688 215.96 100.061 215.757 100.957 215.352C101.874 214.947 102.663 214.381 103.325 213.656C103.986 212.909 104.498 212.045 104.861 211.064C105.245 210.061 105.437 208.973 105.437 207.8C105.437 206.627 105.245 205.549 104.861 204.568C104.498 203.565 103.986 202.701 103.325 201.976C102.663 201.229 101.874 200.653 100.957 200.248C100.061 199.843 99.0688 199.64 97.9808 199.64C96.8928 199.64 95.8901 199.843 94.9728 200.248C94.0768 200.653 93.2874 201.219 92.6048 201.944C91.9434 202.669 91.4314 203.533 91.0688 204.536C90.7061 205.517 90.5248 206.605 90.5248 207.8C90.5248 209.379 90.8448 210.787 91.4848 212.024C92.1248 213.24 92.9994 214.2 94.1088 214.904C95.2394 215.608 96.5301 215.96 97.9808 215.96ZM122.34 219.192C120.612 219.192 119.065 218.819 117.7 218.072C116.335 217.304 115.257 216.259 114.468 214.936C113.7 213.592 113.316 212.077 113.316 210.392V196.568H116.772V210.104C116.772 211.192 117.028 212.173 117.54 213.048C118.052 213.901 118.724 214.584 119.556 215.096C120.409 215.608 121.337 215.864 122.34 215.864C123.407 215.864 124.367 215.608 125.22 215.096C126.095 214.584 126.788 213.901 127.3 213.048C127.812 212.173 128.068 211.192 128.068 210.104V196.568H131.364V210.392C131.364 212.077 130.969 213.592 130.18 214.936C129.412 216.259 128.345 217.304 126.98 218.072C125.615 218.819 124.068 219.192 122.34 219.192ZM137.324 219V196.6H140.428L154.124 214.936L153.612 215.224C153.462 214.349 153.334 213.336 153.228 212.184C153.142 211.032 153.078 209.763 153.036 208.376C152.993 206.989 152.972 205.517 152.972 203.96V196.6H156.428V219H153.26L139.788 201.336L140.14 200.888C140.289 202.509 140.406 203.843 140.492 204.888C140.577 205.912 140.641 206.733 140.684 207.352C140.726 207.971 140.748 208.461 140.748 208.824C140.769 209.165 140.78 209.453 140.78 209.688V219H137.324ZM162.699 219V196.6H171.467C173.067 196.6 174.507 196.867 175.787 197.4C177.088 197.933 178.197 198.701 179.115 199.704C180.032 200.707 180.736 201.891 181.227 203.256C181.717 204.621 181.963 206.136 181.963 207.8C181.963 209.464 181.717 210.989 181.227 212.376C180.736 213.741 180.032 214.925 179.115 215.928C178.219 216.909 177.12 217.667 175.819 218.2C174.517 218.733 173.067 219 171.467 219H162.699ZM166.155 216.024L166.059 215.672H171.307C172.437 215.672 173.44 215.491 174.315 215.128C175.211 214.765 175.957 214.253 176.555 213.592C177.173 212.909 177.643 212.077 177.963 211.096C178.283 210.115 178.443 209.016 178.443 207.8C178.443 206.584 178.283 205.496 177.963 204.536C177.643 203.555 177.173 202.723 176.555 202.04C175.936 201.357 175.189 200.835 174.315 200.472C173.44 200.109 172.437 199.928 171.307 199.928H165.963L166.155 199.64V216.024Z" fill="white"/>
</svg>
